<?xml version="1.0" encoding="UTF-8"?>
<svg id="Layer_12" data-name="Layer 12" xmlns="http://www.w3.org/2000/svg" xmlns:xlink="http://www.w3.org/1999/xlink" viewBox="0 0 512 512">
  <defs>
    <style>
      .cls-1 {
        fill: url(#linear-gradient);
      }

      .cls-1, .cls-2, .cls-3, .cls-4, .cls-5 {
        stroke-width: 0px;
      }

      .cls-2 {
        fill: url(#radial-gradient);
      }

      .cls-3 {
        fill: url(#linear-gradient-2);
      }

      .cls-4 {
        fill: #fff;
      }

      .cls-5 {
        fill: #ffe5e5;
      }
    </style>
    <radialGradient id="radial-gradient" cx="256" cy="-6459.33" fx="256" fy="-6459.33" r="200.83" gradientTransform="translate(0 3336.82) scale(1 .45)" gradientUnits="userSpaceOnUse">
      <stop offset="0" stop-color="#ef3739" stop-opacity=".6"/>
      <stop offset="1" stop-color="#ef3739" stop-opacity="0"/>
    </radialGradient>
    <linearGradient id="linear-gradient" x1="375.79" y1="395.63" x2="116.3" y2="136.15" gradientUnits="userSpaceOnUse">
      <stop offset="0" stop-color="#ef3739"/>
      <stop offset=".54" stop-color="#ef3739"/>
      <stop offset="1" stop-color="#ff8c8b"/>
    </linearGradient>
    <linearGradient id="linear-gradient-2" x1="483.35" y1="321.41" x2="302.03" y2="140.09" xlink:href="#linear-gradient"/>
  </defs>
  <path class="cls-5" d="m496.52,129.85c-13.43-49.48-64.89-100.93-114.37-114.37C351.81,7.92,311.17.13,256,0c-55.17.14-95.81,7.92-126.15,15.49C80.38,28.92,28.92,80.37,15.48,129.85,7.92,160.19.13,200.83,0,256c.14,55.17,7.92,95.81,15.49,126.15,13.44,49.48,64.89,100.93,114.37,114.37,30.34,7.57,70.98,15.35,126.15,15.49,55.16-.14,95.81-7.92,126.15-15.49,49.48-13.44,100.93-64.89,114.37-114.37,7.57-30.33,15.35-70.98,15.49-126.15-.14-55.17-7.92-95.81-15.49-126.15Z"/>
  <path class="cls-2" d="m444.68,366.21c-10.54-17.58-50.91-35.87-89.72-40.64-23.8-2.69-55.68-5.46-98.96-5.5-43.28.05-75.17,2.81-98.96,5.5-38.81,4.78-79.18,23.06-89.72,40.64-5.94,10.78-12.04,25.22-12.15,44.83.11,19.6,6.21,34.05,12.15,44.83,10.54,17.58,50.91,35.87,89.72,40.64,23.8,2.69,55.69,5.46,98.96,5.5,43.28-.05,75.16-2.82,98.96-5.5,38.82-4.77,79.18-23.06,89.72-40.64,5.93-10.78,12.04-25.22,12.15-44.83-.11-19.6-6.22-34.05-12.15-44.83Z"/>
  <g id="DOCUMENT">
    <path class="cls-1" d="m406.24,219.93c-.21-4.62-.47-9.04-.76-13.3-.61-10.29-4.48-18.6-4.48-18.6h0c-41.78-54.46-88.87-92.65-93.38-96.14-.22-.17-.34-.26-.35-.26,0,0,0,0,0,0-8.12-4.49-18.13-4.66-18.13-4.66-1.79-.11-3.67-.22-5.68-.32-2.4-.12-4.96-.22-7.72-.31-5.94-.19-12.81-.31-20.91-.31-.3,0-.6,0-.91,0-45.15.32-48.61,2.67-70.13,5.72-.18.03-.36.05-.54.08-17.63,2.65-34.56,11.75-47.81,25.16-13.22,13.42-22.13,30.49-24.68,48.14.05.04.1.08.16.11,0,.05-.02.09-.02.14-3.7,25.98-5.88,50.86-5.94,90.75.06,39.88,2.25,64.77,5.95,90.75,2.55,17.65,11.45,34.72,24.67,48.14,13.24,13.4,30.18,22.51,47.8,25.15.18.03.36.05.54.08,21.52,3.06,28.84,5.52,73.98,5.71,45.15-.32,48.61-2.67,70.13-5.71.18-.03.36-.05.54-.08,17.63-2.65,34.56-11.75,47.8-25.15,13.22-13.42,22.12-30.49,24.67-48.14,3.7-25.97,5.89-50.86,5.95-90.75,0-13.6-.28-25.45-.78-36.2Z"/>
    <path class="cls-4" d="m167.54,321.9c-.14-8.7,6.9-15.64,15.7-15.54,27.72.35,55.45.5,83.17.45,8.79-.01,15.9,7.1,15.85,15.9-.05,8.81-7.18,16.01-15.91,16.04-27.56.08-55.13-.16-82.69-.73-8.74-.19-15.97-7.43-16.11-16.12Zm-.53-67.43c0-8.7,7.19-15.79,16-15.84,48.76-.21,97.52-.21,146.28,0,8.82.05,16,7.14,16,15.84,0,8.7-7.18,15.78-15.99,15.82-48.77.17-97.54.17-146.3,0-8.82-.04-16-7.13-15.99-15.82Z"/>
    <path class="cls-3" d="m401.01,188.03h0c-41.78-54.46-88.87-92.65-93.38-96.14-.22-.17-.34-.26-.35-.26,0,0,0,0,0,0-8.12-4.49-18.13-4.66-18.13-4.66-.05,0-.1,0-.15,0v.98c.44,27.98.76,55.95.98,83.93.13,18.7,15.37,33.98,34.05,34.19,27.1.32,54.2.84,81.31,1.54l.22.03c-.02-.33-.04-.67-.07-1-.61-10.29-4.48-18.6-4.48-18.6Z"/>
  </g>
</svg>
