<svg width="333" height="333" viewBox="0 0 333 333" fill="none" xmlns="http://www.w3.org/2000/svg">
<g filter="url(#filter0_i_145_3)">
<path d="M306.3 50.3C306.3 28.2086 288.391 10.3 266.3 10.3H199.3C177.209 10.3 159.3 28.2086 159.3 50.3V157.3H52.3C30.2086 157.3 12.3 175.209 12.3 197.3V264.3C12.3 286.391 30.2086 304.3 52.3 304.3H119.3C141.391 304.3 159.3 286.391 159.3 264.3V157.3H266.3C288.391 157.3 306.3 139.391 306.3 117.3V50.3Z" fill="white"/>
</g>
<g filter="url(#filter1_d_145_3)">
<path d="M12.3 50.3C12.3 28.2086 30.2086 10.3 52.3 10.3H119.3C141.391 10.3 159.3 28.2086 159.3 50.3V157.3H266.3C288.391 157.3 306.3 175.209 306.3 197.3V264.3C306.3 286.391 288.391 304.3 266.3 304.3H199.3C177.209 304.3 159.3 286.391 159.3 264.3V157.3H52.3C30.2086 157.3 12.3 139.391 12.3 117.3V50.3Z" fill="#3A3A3A"/>
</g>
<g filter="url(#filter2_i_145_3)">
<path d="M233.757 272.985C227.825 272.985 222.606 271.859 218.1 269.606C213.669 267.353 210.215 264.049 207.737 259.693C205.259 255.338 204.019 250.043 204.019 243.81H213.707C213.707 250.419 215.509 255.525 219.114 259.13C222.718 262.735 227.6 264.537 233.757 264.537C238.939 264.537 243.144 263.335 246.373 260.932C249.678 258.454 251.33 255 251.33 250.569C251.33 247.64 250.466 245.275 248.739 243.472C247.087 241.595 244.872 240.131 242.093 239.079C239.39 237.953 236.423 236.977 233.194 236.151C229.965 235.249 226.698 234.311 223.394 233.335C220.165 232.283 217.161 231.007 214.383 229.505C211.679 227.928 209.501 225.862 207.849 223.309C206.197 220.756 205.371 217.489 205.371 213.509C205.371 209.229 206.46 205.436 208.638 202.132C210.891 198.828 214.007 196.275 217.987 194.472C222.042 192.595 226.811 191.656 232.293 191.656C237.625 191.656 242.393 192.633 246.599 194.585C250.804 196.538 254.146 199.316 256.624 202.921C259.102 206.45 260.416 210.693 260.567 215.649H250.767C250.691 212.495 249.828 209.754 248.176 207.426C246.524 205.098 244.308 203.296 241.53 202.02C238.826 200.743 235.747 200.105 232.293 200.105C227.262 200.105 223.206 201.306 220.128 203.709C217.124 206.037 215.622 209.191 215.622 213.171C215.622 215.875 216.448 218.053 218.1 219.705C219.752 221.357 221.93 222.708 224.633 223.76C227.412 224.736 230.416 225.637 233.645 226.463C236.949 227.289 240.216 228.228 243.445 229.279C246.749 230.256 249.753 231.57 252.456 233.222C255.235 234.874 257.45 237.089 259.102 239.868C260.754 242.646 261.58 246.176 261.58 250.456C261.58 255.112 260.341 259.13 257.863 262.509C255.46 265.889 252.156 268.479 247.951 270.282C243.745 272.084 239.014 272.985 233.757 272.985Z" fill="white"/>
</g>
<g filter="url(#filter3_d_145_3)">
<path d="M81.6884 272.985C75.0799 272.985 69.3351 271.333 64.4539 268.029C59.5727 264.649 55.7803 259.918 53.0769 253.836C50.4485 247.678 49.1343 240.506 49.1343 232.321C49.1343 224.06 50.4485 216.889 53.0769 210.806C55.7803 204.723 59.5727 200.03 64.4539 196.725C69.3351 193.346 75.0799 191.656 81.6884 191.656C88.2968 191.656 94.0416 193.346 98.9228 196.725C103.804 200.03 107.559 204.723 110.187 210.806C112.891 216.889 114.242 224.06 114.242 232.321C114.242 240.506 112.891 247.678 110.187 253.836C107.559 259.918 103.804 264.649 98.9228 268.029C94.0416 271.333 88.2968 272.985 81.6884 272.985ZM81.6884 264.537C86.1941 264.537 90.0991 263.223 93.4033 260.594C96.7826 257.966 99.3734 254.249 101.176 249.443C103.053 244.561 103.992 238.854 103.992 232.321C103.992 225.787 103.053 220.118 101.176 215.312C99.3734 210.505 96.7826 206.788 93.4033 204.16C90.0991 201.456 86.1941 200.105 81.6884 200.105C77.1826 200.105 73.2401 201.456 69.8608 204.16C66.5566 206.788 63.9658 210.505 62.0884 215.312C60.211 220.118 59.2723 225.787 59.2723 232.321C59.2723 238.854 60.211 244.561 62.0884 249.443C63.9658 254.249 66.5566 257.966 69.8608 260.594C73.2401 263.223 77.1826 264.537 81.6884 264.537Z" fill="#3A3A3A"/>
</g>
<g filter="url(#filter4_d_145_3)">
<path d="M233.757 124.295C227.825 124.295 222.606 123.169 218.1 120.916C213.669 118.663 210.215 115.359 207.737 111.003C205.259 106.648 204.019 101.354 204.019 95.1207H213.707C213.707 101.729 215.509 106.836 219.114 110.44C222.718 114.045 227.6 115.847 233.757 115.847C238.939 115.847 243.144 114.646 246.373 112.243C249.678 109.764 251.33 106.31 251.33 101.879C251.33 98.9506 250.466 96.5851 248.739 94.7828C247.087 92.9054 244.872 91.441 242.093 90.3897C239.39 89.2632 236.423 88.287 233.194 87.4609C229.965 86.5598 226.698 85.6211 223.394 84.6448C220.165 83.5935 217.161 82.3169 214.383 80.815C211.679 79.2379 209.501 77.1728 207.849 74.6196C206.197 72.0663 205.371 68.7996 205.371 64.8196C205.371 60.5391 206.46 56.7468 208.638 53.4425C210.891 50.1383 214.007 47.5851 217.987 45.7828C222.042 43.9054 226.811 42.9667 232.293 42.9667C237.625 42.9667 242.393 43.9429 246.599 45.8954C250.804 47.8479 254.146 50.6265 256.624 54.2311C259.102 57.7606 260.416 62.0035 260.567 66.9598H250.767C250.691 63.8058 249.828 61.0648 248.176 58.7368C246.524 56.4088 244.308 54.6065 241.53 53.3299C238.826 52.0533 235.747 51.415 232.293 51.415C227.262 51.415 223.206 52.6165 220.128 55.0196C217.124 57.3475 215.622 60.5015 215.622 64.4816C215.622 67.1851 216.448 69.3629 218.1 71.015C219.752 72.6671 221.93 74.0188 224.633 75.0701C227.412 76.0464 230.416 76.9475 233.645 77.7736C236.949 78.5996 240.216 79.5383 243.445 80.5897C246.749 81.5659 249.753 82.8801 252.456 84.5322C255.235 86.1843 257.45 88.3996 259.102 91.1782C260.754 93.9567 261.58 97.4862 261.58 101.767C261.58 106.423 260.341 110.44 257.863 113.82C255.46 117.199 252.156 119.79 247.951 121.592C243.745 123.394 239.014 124.295 233.757 124.295Z" fill="#3A3A3A"/>
</g>
<g filter="url(#filter5_i_145_3)">
<path d="M55.555 122.944V114.495H83.8286C87.5833 114.495 90.437 113.407 92.3895 111.229C94.4171 108.976 95.4309 105.935 95.4309 102.105V44.3184H105.118V101.767C105.118 105.071 104.668 108.037 103.766 110.666C102.865 113.294 101.514 115.547 99.7113 117.424C97.909 119.226 95.6561 120.616 92.9527 121.592C90.3243 122.493 87.2454 122.944 83.7159 122.944H55.555ZM64.3412 44.3184H104.555V52.7667H64.3412V44.3184Z" fill="white"/>
</g>
<defs>
<filter id="filter0_i_145_3" x="12.3" y="10.3" width="298" height="300" filterUnits="userSpaceOnUse" color-interpolation-filters="sRGB">
<feFlood flood-opacity="0" result="BackgroundImageFix"/>
<feBlend mode="normal" in="SourceGraphic" in2="BackgroundImageFix" result="shape"/>
<feColorMatrix in="SourceAlpha" type="matrix" values="0 0 0 0 0 0 0 0 0 0 0 0 0 0 0 0 0 0 127 0" result="hardAlpha"/>
<feOffset dx="4" dy="6"/>
<feGaussianBlur stdDeviation="8.3"/>
<feComposite in2="hardAlpha" operator="arithmetic" k2="-1" k3="1"/>
<feColorMatrix type="matrix" values="0 0 0 0 0 0 0 0 0 0 0 0 0 0 0 0 0 0 0.25 0"/>
<feBlend mode="normal" in2="shape" result="effect1_innerShadow_145_3"/>
</filter>
<filter id="filter1_d_145_3" x="-1.14441e-05" y="0" width="332.6" height="332.6" filterUnits="userSpaceOnUse" color-interpolation-filters="sRGB">
<feFlood flood-opacity="0" result="BackgroundImageFix"/>
<feColorMatrix in="SourceAlpha" type="matrix" values="0 0 0 0 0 0 0 0 0 0 0 0 0 0 0 0 0 0 127 0" result="hardAlpha"/>
<feOffset dx="7" dy="9"/>
<feGaussianBlur stdDeviation="9.65"/>
<feComposite in2="hardAlpha" operator="out"/>
<feColorMatrix type="matrix" values="0 0 0 0 0 0 0 0 0 0 0 0 0 0 0 0 0 0 0.25 0"/>
<feBlend mode="normal" in2="BackgroundImageFix" result="effect1_dropShadow_145_3"/>
<feBlend mode="normal" in="SourceGraphic" in2="effect1_dropShadow_145_3" result="shape"/>
</filter>
<filter id="filter2_i_145_3" x="204.019" y="191.656" width="57.5609" height="85.3287" filterUnits="userSpaceOnUse" color-interpolation-filters="sRGB">
<feFlood flood-opacity="0" result="BackgroundImageFix"/>
<feBlend mode="normal" in="SourceGraphic" in2="BackgroundImageFix" result="shape"/>
<feColorMatrix in="SourceAlpha" type="matrix" values="0 0 0 0 0 0 0 0 0 0 0 0 0 0 0 0 0 0 127 0" result="hardAlpha"/>
<feOffset dy="4"/>
<feGaussianBlur stdDeviation="2"/>
<feComposite in2="hardAlpha" operator="arithmetic" k2="-1" k3="1"/>
<feColorMatrix type="matrix" values="0 0 0 0 0 0 0 0 0 0 0 0 0 0 0 0 0 0 0.25 0"/>
<feBlend mode="normal" in2="shape" result="effect1_innerShadow_145_3"/>
</filter>
<filter id="filter3_d_145_3" x="42.9343" y="189.456" width="77.508" height="93.7287" filterUnits="userSpaceOnUse" color-interpolation-filters="sRGB">
<feFlood flood-opacity="0" result="BackgroundImageFix"/>
<feColorMatrix in="SourceAlpha" type="matrix" values="0 0 0 0 0 0 0 0 0 0 0 0 0 0 0 0 0 0 127 0" result="hardAlpha"/>
<feOffset dy="4"/>
<feGaussianBlur stdDeviation="3.1"/>
<feComposite in2="hardAlpha" operator="out"/>
<feColorMatrix type="matrix" values="0 0 0 0 0 0 0 0 0 0 0 0 0 0 0 0 0 0 0.25 0"/>
<feBlend mode="normal" in2="BackgroundImageFix" result="effect1_dropShadow_145_3"/>
<feBlend mode="normal" in="SourceGraphic" in2="effect1_dropShadow_145_3" result="shape"/>
</filter>
<filter id="filter4_d_145_3" x="197.819" y="40.7667" width="69.9609" height="93.7287" filterUnits="userSpaceOnUse" color-interpolation-filters="sRGB">
<feFlood flood-opacity="0" result="BackgroundImageFix"/>
<feColorMatrix in="SourceAlpha" type="matrix" values="0 0 0 0 0 0 0 0 0 0 0 0 0 0 0 0 0 0 127 0" result="hardAlpha"/>
<feOffset dy="4"/>
<feGaussianBlur stdDeviation="3.1"/>
<feComposite in2="hardAlpha" operator="out"/>
<feColorMatrix type="matrix" values="0 0 0 0 0 0 0 0 0 0 0 0 0 0 0 0 0 0 0.25 0"/>
<feBlend mode="normal" in2="BackgroundImageFix" result="effect1_dropShadow_145_3"/>
<feBlend mode="normal" in="SourceGraphic" in2="effect1_dropShadow_145_3" result="shape"/>
</filter>
<filter id="filter5_i_145_3" x="55.555" y="44.3184" width="49.5632" height="82.6253" filterUnits="userSpaceOnUse" color-interpolation-filters="sRGB">
<feFlood flood-opacity="0" result="BackgroundImageFix"/>
<feBlend mode="normal" in="SourceGraphic" in2="BackgroundImageFix" result="shape"/>
<feColorMatrix in="SourceAlpha" type="matrix" values="0 0 0 0 0 0 0 0 0 0 0 0 0 0 0 0 0 0 127 0" result="hardAlpha"/>
<feOffset dy="4"/>
<feGaussianBlur stdDeviation="2"/>
<feComposite in2="hardAlpha" operator="arithmetic" k2="-1" k3="1"/>
<feColorMatrix type="matrix" values="0 0 0 0 0 0 0 0 0 0 0 0 0 0 0 0 0 0 0.25 0"/>
<feBlend mode="normal" in2="shape" result="effect1_innerShadow_145_3"/>
</filter>
</defs>
</svg>
