<?xml version="1.0" encoding="UTF-8"?>
<svg id="Layer_13" data-name="Layer 13" xmlns="http://www.w3.org/2000/svg" xmlns:xlink="http://www.w3.org/1999/xlink" viewBox="0 0 512 512">
  <defs>
    <style>
      .cls-1 {
        fill: url(#linear-gradient);
      }

      .cls-1, .cls-2, .cls-3, .cls-4 {
        stroke-width: 0px;
      }

      .cls-2 {
        fill: url(#radial-gradient);
      }

      .cls-3 {
        fill: url(#linear-gradient-2);
      }

      .cls-4 {
        fill: #fff1eb;
      }
    </style>
    <radialGradient id="radial-gradient" cx="256" cy="-6459.33" fx="256" fy="-6459.33" r="200.83" gradientTransform="translate(0 3336.82) scale(1 .45)" gradientUnits="userSpaceOnUse">
      <stop offset="0" stop-color="#fe7737" stop-opacity=".6"/>
      <stop offset="1" stop-color="#fe7837" stop-opacity="0"/>
    </radialGradient>
    <linearGradient id="linear-gradient" x1="382.83" y1="350.87" x2="125.74" y2="93.77" gradientUnits="userSpaceOnUse">
      <stop offset="0" stop-color="#fe7838"/>
      <stop offset=".54" stop-color="#fe7636"/>
      <stop offset="1" stop-color="#ffad8a"/>
    </linearGradient>
    <linearGradient id="linear-gradient-2" x1="306.78" y1="279.92" x2="202.29" y2="175.43" gradientUnits="userSpaceOnUse">
      <stop offset="0" stop-color="#ffddce"/>
      <stop offset=".57" stop-color="#fff"/>
      <stop offset="1" stop-color="#fff"/>
    </linearGradient>
  </defs>
  <path class="cls-4" d="m496.52,129.85c-13.43-49.48-64.89-100.93-114.37-114.37C351.81,7.92,311.17.13,256,0c-55.17.14-95.81,7.92-126.15,15.49C80.38,28.92,28.92,80.37,15.48,129.85,7.92,160.19.13,200.83,0,256c.14,55.17,7.92,95.81,15.49,126.15,13.44,49.48,64.89,100.93,114.37,114.37,30.34,7.57,70.98,15.35,126.15,15.49,55.16-.14,95.81-7.92,126.15-15.49,49.48-13.44,100.93-64.89,114.37-114.37,7.57-30.33,15.35-70.98,15.49-126.15-.14-55.17-7.92-95.81-15.49-126.15Z"/>
  <path class="cls-2" d="m444.68,366.21c-10.54-17.58-50.91-35.87-89.72-40.64-23.8-2.69-55.68-5.46-98.96-5.5-43.28.05-75.17,2.81-98.96,5.5-38.81,4.78-79.18,23.06-89.72,40.64-5.94,10.78-12.04,25.22-12.15,44.83.11,19.6,6.21,34.05,12.15,44.83,10.54,17.58,50.91,35.87,89.72,40.64,23.8,2.69,55.69,5.46,98.96,5.5,43.28-.05,75.16-2.82,98.96-5.5,38.82-4.77,79.18-23.06,89.72-40.64,5.93-10.78,12.04-25.22,12.15-44.83-.11-19.6-6.22-34.05-12.15-44.83Z"/>
  <g id="INFORMATION">
    <path class="cls-1" d="m420.55,154.81l-.05-.51c-1.72-16.47-9.11-31.99-20.83-43.69-11.72-11.71-27.25-19.1-43.73-20.81-24.23-2.52-64.16-3.8-101.65-3.8s-77.42,1.28-101.65,3.8c-16.49,1.71-32.02,9.11-43.73,20.81-11.72,11.71-19.12,27.22-20.83,43.69l-.05.5c-2.1,20.1-3.75,23.32-3.75,65.71s1.65,49.23,3.75,69.33l.05.5c1.72,16.47,9.11,31.99,20.83,43.69,11.72,11.71,27.25,19.1,43.73,20.81,13.37,1.39,31.52,2.4,51.39,3.03l38.57,61.25c5.79,9.19,19.2,9.19,24.99,0l38.6-61.31c19.23-.63,36.74-1.63,49.74-2.98,16.49-1.71,32.02-9.11,43.73-20.81,11.72-11.71,19.12-27.22,20.83-43.69l.05-.51c2.09-20.1,3.75-26.94,3.75-69.32s-1.65-45.61-3.75-65.71Z"/>
    <path class="cls-3" d="m254.22,323.13c-12.46,0-22.56-10.09-22.56-22.54s10.1-22.54,22.56-22.54,22.56,10.09,22.56,22.54-10.1,22.54-22.56,22.54Zm21.87-77.63c-.37,3.46-1.95,6.72-4.46,9.18-2.51,2.46-5.83,4.01-9.36,4.37h-.11c-4.3.45-6.65.39-6.65.39,0,0-3.68.06-7.99-.38h-.11c-3.53-.37-6.85-1.92-9.36-4.38-2.51-2.46-4.09-5.72-4.46-9.18-.54-5.09-.81-40.41-.81-48.28s.27-43.29.81-48.38c.37-3.46,1.95-6.72,4.46-9.18,2.51-2.46,5.83-4.01,9.36-4.37h.11c4.3-.45,7.99-.26,7.99-.26,0,0,2.35-.19,6.65.24h.11c3.53.37,6.85,1.92,9.36,4.38,2.51,2.46,4.09,5.72,4.46,9.18.54,5.09.81,40.51.81,48.38s-.27,43.2-.81,48.28Z"/>
  </g>
</svg>
